<mxfile host="Electron" agent="Mozilla/5.0 (Windows NT 10.0; Win64; x64) AppleWebKit/537.36 (KHTML, like Gecko) draw.io/24.7.17 Chrome/128.0.6613.36 Electron/32.0.1 Safari/537.36" version="24.7.17">
  <diagram name="Page-1" id="FNmSrduUZ5u_OLCGWbWd">
    <mxGraphModel dx="2461" dy="1145" grid="0" gridSize="10" guides="1" tooltips="1" connect="1" arrows="1" fold="1" page="0" pageScale="1" pageWidth="850" pageHeight="1100" math="0" shadow="0">
      <root>
        <mxCell id="0" />
        <mxCell id="1" parent="0" />
        <mxCell id="TE_OKRkOsK2o-EMoypv2-3" value="" style="rounded=0;whiteSpace=wrap;html=1;dashed=1;fillColor=#e3e3e3;strokeWidth=2;strokeColor=#851B85;" parent="1" vertex="1">
          <mxGeometry x="-312" y="484" width="370" height="112" as="geometry" />
        </mxCell>
        <mxCell id="urqGO7AWTMC_Ui9AjQ2h-18" value="" style="rounded=0;whiteSpace=wrap;html=1;dashed=1;fillColor=#e3e3e3;strokeWidth=2;" parent="1" vertex="1">
          <mxGeometry x="-312" y="-152" width="369" height="242" as="geometry" />
        </mxCell>
        <mxCell id="ILpzqOGEgMHz32oO7xNn-144" value="" style="rounded=0;whiteSpace=wrap;html=1;textShadow=0;strokeColor=#780000;dashed=1;fillColor=#e3e3e3;shadow=0;strokeWidth=2;" parent="1" vertex="1">
          <mxGeometry x="-312" y="104" width="369" height="363" as="geometry" />
        </mxCell>
        <mxCell id="ILpzqOGEgMHz32oO7xNn-142" value="" style="rounded=0;whiteSpace=wrap;html=1;textShadow=0;strokeColor=#005700;dashed=1;fillColor=#E3E3E3;fontColor=#ffffff;shadow=0;strokeWidth=2;" parent="1" vertex="1">
          <mxGeometry x="77" y="-152" width="753" height="750" as="geometry" />
        </mxCell>
        <mxCell id="qbweRd84zbe2jINMGlCN-1" value="" style="rounded=0;whiteSpace=wrap;html=1;fillColor=#d5e8d4;strokeWidth=2;strokeColor=#82b366;dashed=1;dashPattern=1 1;" parent="1" vertex="1">
          <mxGeometry x="459" y="40" width="177" height="544" as="geometry" />
        </mxCell>
        <mxCell id="P7hO2bbnkR11tL--QpdS-53" value="" style="rounded=0;whiteSpace=wrap;html=1;fillColor=#bac8d3;strokeWidth=2;strokeColor=#23445d;dashed=1;dashPattern=1 1;" parent="1" vertex="1">
          <mxGeometry x="661" y="-7" width="155" height="590" as="geometry" />
        </mxCell>
        <mxCell id="TE_OKRkOsK2o-EMoypv2-15" value="" style="rounded=0;whiteSpace=wrap;html=1;fillColor=#e1d5e7;strokeWidth=2;strokeColor=#9673a6;dashed=1;dashPattern=1 1;" parent="1" vertex="1">
          <mxGeometry x="195" y="-10" width="226" height="594" as="geometry" />
        </mxCell>
        <mxCell id="TE_OKRkOsK2o-EMoypv2-13" value="" style="rounded=0;whiteSpace=wrap;html=1;fillColor=#dae8fc;strokeWidth=2;strokeColor=#6c8ebf;dashed=1;dashPattern=1 1;" parent="1" vertex="1">
          <mxGeometry x="89" y="-127" width="725" height="86" as="geometry" />
        </mxCell>
        <mxCell id="ILpzqOGEgMHz32oO7xNn-1" value="Users" style="outlineConnect=0;fontColor=#232F3E;gradientColor=none;strokeColor=#232F3E;fillColor=none;dashed=0;verticalLabelPosition=bottom;verticalAlign=top;align=center;html=1;fontSize=13;fontStyle=1;aspect=fixed;shape=mxgraph.aws4.resourceIcon;resIcon=mxgraph.aws4.users;rounded=0;" parent="1" vertex="1">
          <mxGeometry x="-418" y="288.25" width="60" height="60" as="geometry" />
        </mxCell>
        <mxCell id="ILpzqOGEgMHz32oO7xNn-11" value="&lt;font style=&quot;font-size: 11px;&quot;&gt;CDN&lt;/font&gt;" style="text;html=1;align=center;verticalAlign=middle;resizable=0;points=[];autosize=1;strokeColor=none;fillColor=none;fontSize=16;rounded=0;fontStyle=1" parent="1" vertex="1">
          <mxGeometry x="-169" y="109" width="42" height="31" as="geometry" />
        </mxCell>
        <mxCell id="ILpzqOGEgMHz32oO7xNn-27" value="" style="rounded=1;whiteSpace=wrap;html=1;fillColor=#f5f5f5;gradientColor=#b3b3b3;strokeColor=#666666;" parent="1" vertex="1">
          <mxGeometry x="324" y="67" width="72" height="46" as="geometry" />
        </mxCell>
        <mxCell id="ILpzqOGEgMHz32oO7xNn-49" value="" style="rounded=1;whiteSpace=wrap;html=1;fillColor=#cdeb8b;strokeColor=#36393d;shadow=1;" parent="1" vertex="1">
          <mxGeometry x="231.25" y="232.5" width="65.5" height="44" as="geometry" />
        </mxCell>
        <mxCell id="ILpzqOGEgMHz32oO7xNn-50" value="" style="rounded=1;whiteSpace=wrap;html=1;fillColor=#f5f5f5;gradientColor=#b3b3b3;strokeColor=#666666;" parent="1" vertex="1">
          <mxGeometry x="329" y="71" width="74" height="45" as="geometry" />
        </mxCell>
        <mxCell id="ILpzqOGEgMHz32oO7xNn-51" value="Search&lt;div&gt;Service&lt;/div&gt;" style="rounded=1;whiteSpace=wrap;html=1;fillColor=#f5f5f5;strokeColor=#666666;gradientColor=#b3b3b3;fontStyle=1" parent="1" vertex="1">
          <mxGeometry x="334" y="75" width="73" height="43" as="geometry" />
        </mxCell>
        <mxCell id="ILpzqOGEgMHz32oO7xNn-55" value="" style="rounded=1;whiteSpace=wrap;html=1;fillColor=#cdeb8b;strokeColor=#36393d;shadow=1;" parent="1" vertex="1">
          <mxGeometry x="236.25" y="236.5" width="69.5" height="42" as="geometry" />
        </mxCell>
        <mxCell id="ILpzqOGEgMHz32oO7xNn-56" value="Inventory&lt;div&gt;Service&lt;/div&gt;" style="rounded=1;whiteSpace=wrap;html=1;fillColor=#cdeb8b;strokeColor=#36393d;gradientColor=none;shadow=1;fontStyle=1" parent="1" vertex="1">
          <mxGeometry x="241.25" y="241.5" width="68.5" height="41" as="geometry" />
        </mxCell>
        <mxCell id="ILpzqOGEgMHz32oO7xNn-123" value="&lt;font color=&quot;#000000&quot;&gt;Elastic&amp;nbsp;&lt;/font&gt;" style="shape=cylinder3;whiteSpace=wrap;html=1;boundedLbl=1;backgroundOutline=1;size=15;rounded=0;fillColor=#CCCCFF;fontColor=#ffffff;strokeColor=#000000;fontStyle=1" parent="1" vertex="1">
          <mxGeometry x="476" y="52" width="67" height="78" as="geometry" />
        </mxCell>
        <mxCell id="ILpzqOGEgMHz32oO7xNn-143" value="Private network" style="text;html=1;align=center;verticalAlign=middle;resizable=0;points=[];autosize=1;strokeColor=none;fillColor=none;fontSize=11;rounded=0;fontStyle=1" parent="1" vertex="1">
          <mxGeometry x="732" y="-152" width="94" height="25" as="geometry" />
        </mxCell>
        <mxCell id="ILpzqOGEgMHz32oO7xNn-145" value="&lt;font style=&quot;font-size: 11px;&quot;&gt;Public network&lt;/font&gt;" style="text;html=1;align=center;verticalAlign=middle;resizable=0;points=[];autosize=1;strokeColor=none;fillColor=none;fontSize=16;rounded=0;fontStyle=1" parent="1" vertex="1">
          <mxGeometry x="-35.55" y="96" width="90" height="31" as="geometry" />
        </mxCell>
        <mxCell id="ILpzqOGEgMHz32oO7xNn-146" style="edgeStyle=none;curved=0;rounded=0;orthogonalLoop=1;jettySize=auto;html=1;exitX=0;exitY=0.5;exitDx=0;exitDy=0;entryX=0;entryY=0.5;entryDx=0;entryDy=0;fontSize=12;startSize=8;endSize=8;fillColor=#008a00;strokeColor=#005700;strokeWidth=1;startArrow=block;startFill=0;" parent="1" edge="1">
          <mxGeometry relative="1" as="geometry">
            <mxPoint x="-112" y="-79.25" as="sourcePoint" />
            <mxPoint x="16" y="-82.75" as="targetPoint" />
            <Array as="points" />
          </mxGeometry>
        </mxCell>
        <mxCell id="ILpzqOGEgMHz32oO7xNn-147" value="Synchronous - https/Rest" style="text;html=1;align=center;verticalAlign=middle;resizable=0;points=[];autosize=1;fontStyle=1" parent="1" vertex="1">
          <mxGeometry x="-308" y="-92" width="153" height="26" as="geometry" />
        </mxCell>
        <mxCell id="ILpzqOGEgMHz32oO7xNn-150" style="edgeStyle=none;curved=0;rounded=0;orthogonalLoop=1;jettySize=auto;html=1;entryX=1.006;entryY=0.378;entryDx=0;entryDy=0;entryPerimeter=0;fontSize=12;startSize=8;endSize=8;fillColor=#e51400;strokeColor=#B20000;strokeWidth=1;dashed=1;startArrow=none;startFill=0;" parent="1" edge="1">
          <mxGeometry relative="1" as="geometry">
            <mxPoint x="-119" y="-28.5" as="sourcePoint" />
            <mxPoint x="12" y="-28.5" as="targetPoint" />
            <Array as="points" />
          </mxGeometry>
        </mxCell>
        <mxCell id="ILpzqOGEgMHz32oO7xNn-151" value="Asynchronous - Event driven" style="text;html=1;align=center;verticalAlign=middle;resizable=0;points=[];autosize=1;strokeColor=none;fillColor=none;fontStyle=1" parent="1" vertex="1">
          <mxGeometry x="-308.75" y="-36.5" width="171" height="26" as="geometry" />
        </mxCell>
        <mxCell id="ILpzqOGEgMHz32oO7xNn-157" value="" style="endArrow=classic;html=1;rounded=0;fillColor=#e3c800;strokeColor=#7D6A00;strokeWidth=1;startArrow=block;startFill=0;" parent="1" edge="1">
          <mxGeometry width="50" height="50" relative="1" as="geometry">
            <mxPoint x="-112" y="-55.5" as="sourcePoint" />
            <mxPoint x="14" y="-58.5" as="targetPoint" />
          </mxGeometry>
        </mxCell>
        <mxCell id="ILpzqOGEgMHz32oO7xNn-158" value="Synchronous - grpc" style="text;html=1;align=center;verticalAlign=middle;resizable=0;points=[];autosize=1;strokeColor=none;fillColor=none;fontStyle=1" parent="1" vertex="1">
          <mxGeometry x="-311" y="-66" width="122" height="26" as="geometry" />
        </mxCell>
        <mxCell id="hqVNRMzppCiJ99_KFiAW-20" value="" style="rounded=1;whiteSpace=wrap;html=1;fillColor=#d5e8d4;strokeColor=#090D07;gradientColor=#97d077;shadow=1;" parent="1" vertex="1">
          <mxGeometry x="321.5" y="290" width="68.5" height="41.5" as="geometry" />
        </mxCell>
        <mxCell id="hqVNRMzppCiJ99_KFiAW-22" value="" style="rounded=1;whiteSpace=wrap;html=1;fillColor=#d5e8d4;strokeColor=#090D07;gradientColor=#97d077;shadow=1;" parent="1" vertex="1">
          <mxGeometry x="326.5" y="294" width="69.5" height="43.5" as="geometry" />
        </mxCell>
        <mxCell id="qbweRd84zbe2jINMGlCN-6" style="edgeStyle=orthogonalEdgeStyle;rounded=0;orthogonalLoop=1;jettySize=auto;html=1;exitX=1;exitY=0.5;exitDx=0;exitDy=0;dashed=1;dashPattern=1 1;startArrow=block;startFill=0;" parent="1" source="hqVNRMzppCiJ99_KFiAW-23" target="hqVNRMzppCiJ99_KFiAW-24" edge="1">
          <mxGeometry relative="1" as="geometry" />
        </mxCell>
        <mxCell id="hqVNRMzppCiJ99_KFiAW-23" value="Cart&lt;div&gt;&lt;span style=&quot;background-color: initial;&quot;&gt;Service&lt;/span&gt;&lt;/div&gt;" style="rounded=1;whiteSpace=wrap;html=1;fillColor=#d5e8d4;gradientColor=#97d077;strokeColor=#090D07;shadow=1;fontStyle=1" parent="1" vertex="1">
          <mxGeometry x="332.5" y="298" width="70.5" height="40.5" as="geometry" />
        </mxCell>
        <mxCell id="hqVNRMzppCiJ99_KFiAW-24" value="KV Memory Store" style="shape=cylinder3;whiteSpace=wrap;html=1;boundedLbl=1;backgroundOutline=1;size=15;rounded=0;fillColor=#FF99CC;strokeColor=#660033;fontColor=#000000;gradientDirection=north;gradientColor=#CC0066;fontStyle=1" parent="1" vertex="1">
          <mxGeometry x="477" y="278.5" width="65" height="80" as="geometry" />
        </mxCell>
        <mxCell id="hqVNRMzppCiJ99_KFiAW-31" value="" style="rounded=1;whiteSpace=wrap;html=1;fillColor=#b0e3e6;strokeColor=#0e8088;shadow=1;" parent="1" vertex="1">
          <mxGeometry x="324" y="177.5" width="62" height="38" as="geometry" />
        </mxCell>
        <mxCell id="hqVNRMzppCiJ99_KFiAW-33" value="" style="rounded=1;whiteSpace=wrap;html=1;fillColor=#b0e3e6;strokeColor=#0e8088;shadow=1;" parent="1" vertex="1">
          <mxGeometry x="328.25" y="181.5" width="65.75" height="39" as="geometry" />
        </mxCell>
        <mxCell id="hqVNRMzppCiJ99_KFiAW-34" value="Order&lt;div&gt;&lt;span style=&quot;background-color: initial;&quot;&gt;Service&lt;/span&gt;&lt;/div&gt;" style="rounded=1;whiteSpace=wrap;html=1;fillColor=#b0e3e6;strokeColor=#0e8088;shadow=1;fontStyle=1" parent="1" vertex="1">
          <mxGeometry x="333.25" y="185.5" width="68.75" height="39" as="geometry" />
        </mxCell>
        <mxCell id="hqVNRMzppCiJ99_KFiAW-35" value="SQL" style="shape=cylinder3;whiteSpace=wrap;html=1;boundedLbl=1;backgroundOutline=1;size=15;rounded=0;fillColor=#f5f5f5;strokeColor=#666666;gradientColor=#b3b3b3;fontStyle=1" parent="1" vertex="1">
          <mxGeometry x="475" y="167.5" width="64" height="76" as="geometry" />
        </mxCell>
        <mxCell id="hqVNRMzppCiJ99_KFiAW-51" value="" style="rounded=1;whiteSpace=wrap;html=1;fillColor=#dae8fc;strokeColor=#6c8ebf;gradientColor=#7ea6e0;shadow=1;" parent="1" vertex="1">
          <mxGeometry x="236" y="341" width="64" height="41.5" as="geometry" />
        </mxCell>
        <mxCell id="hqVNRMzppCiJ99_KFiAW-53" value="" style="rounded=1;whiteSpace=wrap;html=1;fillColor=#dae8fc;strokeColor=#6c8ebf;gradientColor=#7ea6e0;shadow=1;" parent="1" vertex="1">
          <mxGeometry x="242" y="346" width="67" height="39.5" as="geometry" />
        </mxCell>
        <mxCell id="hqVNRMzppCiJ99_KFiAW-54" value="Discount&lt;div&gt;&lt;span style=&quot;background-color: initial;&quot;&gt;Service&lt;/span&gt;&lt;/div&gt;" style="rounded=1;whiteSpace=wrap;html=1;fillColor=#dae8fc;gradientColor=#7ea6e0;strokeColor=#6c8ebf;shadow=1;fontStyle=1" parent="1" vertex="1">
          <mxGeometry x="246.75" y="350.5" width="67" height="39" as="geometry" />
        </mxCell>
        <mxCell id="hqVNRMzppCiJ99_KFiAW-60" value="" style="rounded=1;whiteSpace=wrap;html=1;fillColor=#e1d5e7;strokeColor=#9673a6;gradientColor=#756F78;shadow=1;" parent="1" vertex="1">
          <mxGeometry x="231.25" y="446.5" width="62" height="40" as="geometry" />
        </mxCell>
        <mxCell id="hqVNRMzppCiJ99_KFiAW-62" value="" style="rounded=1;whiteSpace=wrap;html=1;fillColor=#e1d5e7;strokeColor=#9673a6;gradientColor=#756F78;shadow=1;" parent="1" vertex="1">
          <mxGeometry x="236.25" y="450.5" width="67" height="42" as="geometry" />
        </mxCell>
        <mxCell id="qbweRd84zbe2jINMGlCN-19" style="edgeStyle=orthogonalEdgeStyle;rounded=0;orthogonalLoop=1;jettySize=auto;html=1;exitX=1;exitY=0.5;exitDx=0;exitDy=0;dashed=1;dashPattern=1 1;startArrow=block;startFill=0;" parent="1" source="hqVNRMzppCiJ99_KFiAW-63" target="qbweRd84zbe2jINMGlCN-18" edge="1">
          <mxGeometry relative="1" as="geometry" />
        </mxCell>
        <mxCell id="hqVNRMzppCiJ99_KFiAW-63" value="User&lt;div&gt;&lt;span style=&quot;background-color: initial;&quot;&gt;Service&lt;/span&gt;&lt;/div&gt;" style="rounded=1;whiteSpace=wrap;html=1;fillColor=#e1d5e7;strokeColor=#9673a6;gradientColor=#756F78;shadow=1;fontStyle=1" parent="1" vertex="1">
          <mxGeometry x="241.25" y="454.5" width="70" height="42" as="geometry" />
        </mxCell>
        <mxCell id="hqVNRMzppCiJ99_KFiAW-75" value="" style="rounded=1;whiteSpace=wrap;html=1;fillColor=#E6FFCC;strokeColor=#2D7600;gradientColor=#636363;shadow=1;" parent="1" vertex="1">
          <mxGeometry x="329" y="510" width="65" height="38" as="geometry" />
        </mxCell>
        <mxCell id="qbweRd84zbe2jINMGlCN-58" style="edgeStyle=orthogonalEdgeStyle;rounded=0;orthogonalLoop=1;jettySize=auto;html=1;entryX=0.5;entryY=0;entryDx=0;entryDy=0;strokeColor=#851B85;strokeWidth=1;startArrow=block;startFill=0;exitX=0.244;exitY=1.019;exitDx=0;exitDy=0;exitPerimeter=0;" parent="1" source="5i6Ug29ZbOM_D7j-h46M-43" target="uyhA110zfRlWLcyk9HhF-11" edge="1">
          <mxGeometry relative="1" as="geometry">
            <Array as="points">
              <mxPoint x="312" y="576" />
              <mxPoint x="26" y="576" />
              <mxPoint x="26" y="541" />
            </Array>
            <mxPoint x="255" y="544" as="sourcePoint" />
          </mxGeometry>
        </mxCell>
        <mxCell id="hqVNRMzppCiJ99_KFiAW-77" value="" style="rounded=1;whiteSpace=wrap;html=1;fillColor=#E6FFCC;strokeColor=#2D7600;fontColor=#ffffff;gradientColor=#636363;shadow=1;" parent="1" vertex="1">
          <mxGeometry x="333" y="515" width="67" height="35" as="geometry" />
        </mxCell>
        <mxCell id="hqVNRMzppCiJ99_KFiAW-78" value="Payment&lt;div&gt;&lt;span style=&quot;background-color: initial;&quot;&gt;Service&lt;/span&gt;&lt;/div&gt;" style="rounded=1;whiteSpace=wrap;html=1;fillColor=#E6FFCC;strokeColor=#2D7600;fontColor=#000000;gradientColor=#636363;shadow=1;fontStyle=1" parent="1" vertex="1">
          <mxGeometry x="339" y="520" width="69" height="36" as="geometry" />
        </mxCell>
        <mxCell id="hqVNRMzppCiJ99_KFiAW-84" value="" style="rounded=1;whiteSpace=wrap;html=1;fillColor=#fad9d5;strokeColor=#ae4132;gradientColor=#EA6B66;shadow=1;" parent="1" vertex="1">
          <mxGeometry x="321.5" y="397" width="77" height="44" as="geometry" />
        </mxCell>
        <mxCell id="hqVNRMzppCiJ99_KFiAW-86" value="" style="rounded=1;whiteSpace=wrap;html=1;fillColor=#fad9d5;strokeColor=#ae4132;gradientColor=#EA6B66;shadow=1;" parent="1" vertex="1">
          <mxGeometry x="326.5" y="402" width="76" height="41" as="geometry" />
        </mxCell>
        <mxCell id="hqVNRMzppCiJ99_KFiAW-87" value="Shipping&lt;div&gt;&lt;span style=&quot;background-color: initial;&quot;&gt;Service&lt;/span&gt;&lt;/div&gt;" style="rounded=1;whiteSpace=wrap;html=1;fillColor=#fad9d5;strokeColor=#ae4132;gradientColor=#EA6B66;shadow=1;fontStyle=1" parent="1" vertex="1">
          <mxGeometry x="332.5" y="407" width="73" height="38" as="geometry" />
        </mxCell>
        <mxCell id="hqVNRMzppCiJ99_KFiAW-98" value="" style="rounded=1;whiteSpace=wrap;html=1;fillColor=#e6d0de;gradientColor=#d5739d;strokeColor=#996185;" parent="1" vertex="1">
          <mxGeometry x="236" y="119.5" width="65.75" height="38" as="geometry" />
        </mxCell>
        <mxCell id="hqVNRMzppCiJ99_KFiAW-100" value="" style="rounded=1;whiteSpace=wrap;html=1;fillColor=#e6d0de;gradientColor=#d5739d;strokeColor=#996185;" parent="1" vertex="1">
          <mxGeometry x="240" y="124.5" width="69.75" height="40" as="geometry" />
        </mxCell>
        <mxCell id="hqVNRMzppCiJ99_KFiAW-101" value="Product&lt;div&gt;&lt;span style=&quot;background-color: initial;&quot;&gt;Service&lt;/span&gt;&lt;/div&gt;" style="rounded=1;whiteSpace=wrap;html=1;fillColor=#e6d0de;gradientColor=#d5739d;strokeColor=#996185;fontStyle=1" parent="1" vertex="1">
          <mxGeometry x="245" y="129.5" width="69.75" height="38" as="geometry" />
        </mxCell>
        <mxCell id="hqVNRMzppCiJ99_KFiAW-102" value="&lt;div&gt;Document&lt;/div&gt;&lt;div&gt;NoSQL&lt;/div&gt;" style="shape=cylinder3;whiteSpace=wrap;html=1;boundedLbl=1;backgroundOutline=1;size=15;rounded=0;fillColor=#fad7ac;strokeColor=#b46504;fontStyle=1" parent="1" vertex="1">
          <mxGeometry x="546" y="111.5" width="67" height="74" as="geometry" />
        </mxCell>
        <mxCell id="hqVNRMzppCiJ99_KFiAW-209" value="Check&amp;nbsp;&lt;span style=&quot;background-color: initial;&quot;&gt;Inventory&lt;/span&gt;" style="text;html=1;align=center;verticalAlign=middle;resizable=0;points=[];autosize=1;strokeColor=none;fillColor=none;fontSize=11;rounded=0;rotation=0;fontStyle=1" parent="1" vertex="1">
          <mxGeometry x="309.75" y="225.75" width="97" height="25" as="geometry" />
        </mxCell>
        <mxCell id="3KepqCRreSBxK8r_iUo3-3" style="edgeStyle=orthogonalEdgeStyle;rounded=0;orthogonalLoop=1;jettySize=auto;html=1;entryX=0;entryY=0.5;entryDx=0;entryDy=0;strokeColor=#005700;fontStyle=0;strokeWidth=1;startArrow=block;startFill=0;" parent="1" source="98wAxy-DsdHwi_wowS8c-1" target="3KepqCRreSBxK8r_iUo3-1" edge="1">
          <mxGeometry relative="1" as="geometry">
            <mxPoint x="-192" y="361.5" as="sourcePoint" />
          </mxGeometry>
        </mxCell>
        <mxCell id="Z5AxZRiR1ccud-SpPowU-11" style="edgeStyle=orthogonalEdgeStyle;rounded=0;orthogonalLoop=1;jettySize=auto;html=1;exitX=1.002;exitY=0.496;exitDx=0;exitDy=0;entryX=0.5;entryY=1;entryDx=0;entryDy=0;strokeWidth=1;strokeColor=#005700;exitPerimeter=0;startArrow=block;startFill=0;" parent="1" source="98wAxy-DsdHwi_wowS8c-1" target="OpT-MC_qUvA9qBk__BMZ-7" edge="1">
          <mxGeometry relative="1" as="geometry">
            <mxPoint x="-200.78679656440352" y="340.28679656440363" as="sourcePoint" />
          </mxGeometry>
        </mxCell>
        <mxCell id="Z5AxZRiR1ccud-SpPowU-15" style="edgeStyle=orthogonalEdgeStyle;rounded=0;orthogonalLoop=1;jettySize=auto;html=1;entryX=0.5;entryY=1;entryDx=0;entryDy=0;strokeColor=#851B85;strokeWidth=1;startArrow=block;startFill=0;" parent="1" source="98wAxy-DsdHwi_wowS8c-1" target="uyhA110zfRlWLcyk9HhF-11" edge="1">
          <mxGeometry relative="1" as="geometry">
            <Array as="points">
              <mxPoint x="-223" y="541" />
            </Array>
            <mxPoint x="-222" y="410" as="sourcePoint" />
          </mxGeometry>
        </mxCell>
        <mxCell id="KnMCrY_Kx2zRuAthfWW4-51" style="edgeStyle=orthogonalEdgeStyle;rounded=0;orthogonalLoop=1;jettySize=auto;html=1;exitX=1;exitY=0.5;exitDx=0;exitDy=0;entryX=1.06;entryY=0.574;entryDx=0;entryDy=0;strokeColor=#005700;fontStyle=1;strokeWidth=1;startArrow=block;startFill=0;entryPerimeter=0;" parent="1" source="3KepqCRreSBxK8r_iUo3-1" target="3KepqCRreSBxK8r_iUo3-4" edge="1">
          <mxGeometry relative="1" as="geometry" />
        </mxCell>
        <mxCell id="3KepqCRreSBxK8r_iUo3-1" value="" style="rounded=1;whiteSpace=wrap;html=1;fillColor=#FFCCFF;strokeColor=#695469;shadow=1;fontSize=9;gradientColor=#786078;strokeWidth=2;" parent="1" vertex="1">
          <mxGeometry x="-76" y="187" width="105" height="260" as="geometry" />
        </mxCell>
        <mxCell id="5i6Ug29ZbOM_D7j-h46M-12" style="edgeStyle=orthogonalEdgeStyle;rounded=0;orthogonalLoop=1;jettySize=auto;html=1;exitX=0.5;exitY=0;exitDx=0;exitDy=0;entryX=0.25;entryY=0.5;entryDx=0;entryDy=0;strokeWidth=1;strokeColor=#005700;startArrow=block;startFill=0;entryPerimeter=0;" edge="1" parent="1" source="3KepqCRreSBxK8r_iUo3-4" target="5i6Ug29ZbOM_D7j-h46M-43">
          <mxGeometry relative="1" as="geometry">
            <Array as="points">
              <mxPoint x="147" y="533" />
              <mxPoint x="250" y="533" />
            </Array>
          </mxGeometry>
        </mxCell>
        <mxCell id="3KepqCRreSBxK8r_iUo3-4" value="&lt;font style=&quot;font-size: 13px;&quot;&gt;ALB&lt;/font&gt;" style="rounded=1;whiteSpace=wrap;html=1;direction=west;fillColor=#f8cecc;strokeColor=#B09291;shadow=1;gradientColor=none;gradientDirection=north;fontStyle=1;fontSize=13;strokeWidth=2;" parent="1" vertex="1">
          <mxGeometry x="124" y="178" width="46" height="326" as="geometry" />
        </mxCell>
        <mxCell id="KnMCrY_Kx2zRuAthfWW4-2" value="" style="rounded=1;whiteSpace=wrap;html=1;fillColor=#CAF1DE;strokeColor=#4B5952;fontColor=#000000;gradientColor=#64786E;gradientDirection=south;shadow=1;" parent="1" vertex="1">
          <mxGeometry x="322.25" y="5" width="67.75" height="39" as="geometry" />
        </mxCell>
        <mxCell id="KnMCrY_Kx2zRuAthfWW4-3" value="" style="rounded=1;whiteSpace=wrap;html=1;fillColor=#CAF1DE;strokeColor=#4B5952;fontColor=#000000;gradientColor=#64786E;gradientDirection=south;shadow=1;" parent="1" vertex="1">
          <mxGeometry x="328" y="9" width="70" height="40" as="geometry" />
        </mxCell>
        <mxCell id="5i6Ug29ZbOM_D7j-h46M-18" style="edgeStyle=orthogonalEdgeStyle;rounded=0;orthogonalLoop=1;jettySize=auto;html=1;exitX=0.25;exitY=0.5;exitDx=0;exitDy=0;entryX=0.5;entryY=1;entryDx=0;entryDy=0;strokeColor=#005700;strokeWidth=1;exitPerimeter=0;" edge="1" parent="1" source="5i6Ug29ZbOM_D7j-h46M-24" target="5i6Ug29ZbOM_D7j-h46M-14">
          <mxGeometry relative="1" as="geometry">
            <Array as="points">
              <mxPoint x="299" y="30" />
              <mxPoint x="299" y="-22" />
              <mxPoint x="267" y="-22" />
            </Array>
          </mxGeometry>
        </mxCell>
        <mxCell id="KnMCrY_Kx2zRuAthfWW4-4" value="Notification&lt;div&gt;Service&lt;/div&gt;" style="rounded=1;whiteSpace=wrap;html=1;fillColor=#CAF1DE;strokeColor=#4B5952;fontColor=#000000;gradientColor=#64786E;gradientDirection=south;shadow=1;fontStyle=1" parent="1" vertex="1">
          <mxGeometry x="333" y="14" width="70" height="36" as="geometry" />
        </mxCell>
        <mxCell id="KnMCrY_Kx2zRuAthfWW4-24" style="edgeStyle=orthogonalEdgeStyle;rounded=0;orthogonalLoop=1;jettySize=auto;html=1;exitX=0.57;exitY=0.943;exitDx=0;exitDy=0;strokeColor=#7D6A00;strokeWidth=2;entryX=0.5;entryY=0;entryDx=0;entryDy=0;startArrow=block;startFill=0;exitPerimeter=0;" parent="1" source="5i6Ug29ZbOM_D7j-h46M-32" target="ILpzqOGEgMHz32oO7xNn-56" edge="1">
          <mxGeometry relative="1" as="geometry">
            <Array as="points">
              <mxPoint x="316" y="225" />
              <mxPoint x="276" y="225" />
            </Array>
            <mxPoint x="447.95600000000013" y="203.1479999999999" as="sourcePoint" />
            <mxPoint x="304" y="244" as="targetPoint" />
          </mxGeometry>
        </mxCell>
        <mxCell id="KnMCrY_Kx2zRuAthfWW4-69" value="ALB -&amp;nbsp; &amp;nbsp; &amp;nbsp; &amp;nbsp; &amp;nbsp; &amp;nbsp; &amp;nbsp; &amp;nbsp; &amp;nbsp; &amp;nbsp; &amp;nbsp; &amp;nbsp; &amp;nbsp; &amp;nbsp; &amp;nbsp; &amp;nbsp; &amp;nbsp; &amp;nbsp; &amp;nbsp; &amp;nbsp; &amp;nbsp; &amp;nbsp;Application load balancer" style="text;html=1;align=center;verticalAlign=middle;resizable=0;points=[];autosize=1;strokeColor=none;fillColor=none;fontStyle=1" parent="1" vertex="1">
          <mxGeometry x="-308" y="-8" width="325" height="26" as="geometry" />
        </mxCell>
        <mxCell id="KnMCrY_Kx2zRuAthfWW4-70" value="ILBS -&amp;nbsp; &amp;nbsp; &amp;nbsp; &amp;nbsp; &amp;nbsp; &amp;nbsp; &amp;nbsp; &amp;nbsp; &amp;nbsp; &amp;nbsp; &amp;nbsp; &amp;nbsp; &amp;nbsp; &amp;nbsp; &amp;nbsp; &amp;nbsp; &amp;nbsp; &amp;nbsp; &amp;nbsp; &amp;nbsp; Internal load balancing service" style="text;html=1;align=center;verticalAlign=middle;resizable=0;points=[];autosize=1;strokeColor=none;fillColor=none;fontStyle=1" parent="1" vertex="1">
          <mxGeometry x="-308" y="21" width="347" height="26" as="geometry" />
        </mxCell>
        <mxCell id="JwgxExFeMxKhF7BPWmSk-1" value="&lt;font style=&quot;font-size: 13px;&quot;&gt;&amp;nbsp; &amp;nbsp; &amp;nbsp; &amp;nbsp; Logging &amp;amp;&amp;nbsp;&lt;/font&gt;&lt;div&gt;&lt;font style=&quot;font-size: 13px;&quot;&gt;&amp;nbsp; &amp;nbsp; &amp;nbsp; &amp;nbsp; Monitoring&lt;/font&gt;&lt;/div&gt;" style="rounded=1;whiteSpace=wrap;html=1;direction=west;fillColor=#6A8585;strokeColor=#5C4C4C;shadow=1;gradientDirection=east;fontColor=#000000;gradientColor=none;fontSize=13;fontStyle=1" parent="1" vertex="1">
          <mxGeometry x="568" y="-102" width="132" height="43" as="geometry" />
        </mxCell>
        <mxCell id="JwgxExFeMxKhF7BPWmSk-36" value="A connection from&lt;span style=&quot;background-color: initial;&quot;&gt;&amp;nbsp;multiple components&lt;/span&gt;&lt;div&gt;&lt;span style=&quot;background-color: initial;&quot;&gt;&amp;nbsp;i&lt;/span&gt;&lt;span style=&quot;background-color: initial;&quot;&gt;.e.&amp;nbsp;&lt;/span&gt;&lt;span style=&quot;background-color: initial;&quot;&gt;API gateway&lt;/span&gt;&lt;span style=&quot;background-color: initial;&quot;&gt;, microservices&lt;/span&gt;&lt;/div&gt;" style="text;html=1;align=center;verticalAlign=middle;resizable=0;points=[];autosize=1;strokeColor=none;fillColor=none;fontStyle=1" parent="1" vertex="1">
          <mxGeometry x="-298" y="-139" width="227" height="41" as="geometry" />
        </mxCell>
        <mxCell id="JwgxExFeMxKhF7BPWmSk-37" value="&lt;font color=&quot;#ffffff&quot;&gt;&amp;nbsp; &amp;nbsp; &amp;nbsp; &amp;nbsp; &amp;nbsp; &amp;nbsp; Auth &amp;amp;&lt;/font&gt;&lt;div&gt;&lt;font color=&quot;#ffffff&quot;&gt;&amp;nbsp; &amp;nbsp; &amp;nbsp; &amp;nbsp; &amp;nbsp; Authz&lt;/font&gt;&lt;/div&gt;" style="rounded=1;whiteSpace=wrap;html=1;fillColor=#FF7AAF;fontStyle=1" parent="1" vertex="1">
          <mxGeometry x="455" y="-102" width="101" height="44" as="geometry" />
        </mxCell>
        <mxCell id="JwgxExFeMxKhF7BPWmSk-40" value="" style="sketch=0;pointerEvents=1;shadow=0;dashed=0;html=1;strokeColor=none;labelPosition=center;verticalLabelPosition=bottom;verticalAlign=top;align=center;fillColor=#505050;shape=mxgraph.mscae.oms.log_search" parent="1" vertex="1">
          <mxGeometry x="570.5" y="-98.5" width="35" height="35" as="geometry" />
        </mxCell>
        <mxCell id="urqGO7AWTMC_Ui9AjQ2h-4" value="&lt;span style=&quot;font-size: 11px;&quot;&gt;https://mcart.com&lt;/span&gt;" style="text;html=1;align=center;verticalAlign=middle;resizable=0;points=[];autosize=1;strokeColor=none;fillColor=none;fontSize=16;rounded=0;rotation=0;fontStyle=1" parent="1" vertex="1">
          <mxGeometry x="-358" y="313.5" width="102" height="31" as="geometry" />
        </mxCell>
        <mxCell id="urqGO7AWTMC_Ui9AjQ2h-6" value="&lt;font style=&quot;font-size: 11px;&quot;&gt;Cache Miss&lt;/font&gt;" style="text;html=1;align=center;verticalAlign=middle;resizable=0;points=[];autosize=1;strokeColor=none;fillColor=none;fontSize=16;rounded=0;rotation=0;fontStyle=1" parent="1" vertex="1">
          <mxGeometry x="-58" y="135.5" width="75" height="31" as="geometry" />
        </mxCell>
        <mxCell id="urqGO7AWTMC_Ui9AjQ2h-7" value="&amp;nbsp; &amp;nbsp; &amp;nbsp; &amp;nbsp; &amp;nbsp;Blob&amp;nbsp;&lt;div&gt;&amp;nbsp; &amp;nbsp; &amp;nbsp; &amp;nbsp; &amp;nbsp; &amp;nbsp; &amp;nbsp;Storage&lt;/div&gt;" style="rounded=1;whiteSpace=wrap;html=1;fillColor=#F27C44;strokeColor=#6D1F00;fontColor=#FFFFFF;fontStyle=1" parent="1" vertex="1">
          <mxGeometry x="97" y="-102" width="104" height="44" as="geometry" />
        </mxCell>
        <mxCell id="urqGO7AWTMC_Ui9AjQ2h-8" value="" style="sketch=0;html=1;aspect=fixed;strokeColor=none;shadow=0;fillColor=#FFFFFF;verticalAlign=top;labelPosition=center;verticalLabelPosition=bottom;shape=mxgraph.gcp2.files" parent="1" vertex="1">
          <mxGeometry x="105" y="-100" width="40" height="38.8" as="geometry" />
        </mxCell>
        <mxCell id="urqGO7AWTMC_Ui9AjQ2h-12" value="&lt;font style=&quot;font-size: 12px;&quot;&gt;API&amp;nbsp;&lt;/font&gt;&lt;span style=&quot;background-color: initial; font-size: 12px;&quot;&gt;Gateway&lt;/span&gt;" style="text;html=1;align=center;verticalAlign=middle;resizable=0;points=[];autosize=1;strokeColor=none;fillColor=none;fontSize=12;rounded=0;fontStyle=1" parent="1" vertex="1">
          <mxGeometry x="-70.5" y="188.5" width="88" height="26" as="geometry" />
        </mxCell>
        <mxCell id="NbxSy4P5_vYFstT8VovK-12" value="" style="endArrow=none;html=1;rounded=0;edgeStyle=elbowEdgeStyle;" parent="1" edge="1">
          <mxGeometry width="50" height="50" relative="1" as="geometry">
            <mxPoint x="470.5" y="-35" as="sourcePoint" />
            <mxPoint x="542" y="-35" as="targetPoint" />
            <Array as="points">
              <mxPoint x="507" y="-59" />
            </Array>
          </mxGeometry>
        </mxCell>
        <mxCell id="NbxSy4P5_vYFstT8VovK-15" value="" style="endArrow=classic;html=1;rounded=0;" parent="1" edge="1">
          <mxGeometry width="50" height="50" relative="1" as="geometry">
            <mxPoint x="506" y="-14" as="sourcePoint" />
            <mxPoint x="506" y="-61" as="targetPoint" />
          </mxGeometry>
        </mxCell>
        <mxCell id="NbxSy4P5_vYFstT8VovK-16" value="" style="endArrow=none;html=1;rounded=0;" parent="1" edge="1">
          <mxGeometry width="50" height="50" relative="1" as="geometry">
            <mxPoint x="471" y="-13" as="sourcePoint" />
            <mxPoint x="471" y="-35" as="targetPoint" />
          </mxGeometry>
        </mxCell>
        <mxCell id="NbxSy4P5_vYFstT8VovK-17" value="" style="endArrow=none;html=1;rounded=0;" parent="1" edge="1">
          <mxGeometry width="50" height="50" relative="1" as="geometry">
            <mxPoint x="542" y="-14" as="sourcePoint" />
            <mxPoint x="542" y="-35" as="targetPoint" />
          </mxGeometry>
        </mxCell>
        <mxCell id="NbxSy4P5_vYFstT8VovK-20" value="" style="endArrow=none;html=1;rounded=0;edgeStyle=elbowEdgeStyle;" parent="1" edge="1">
          <mxGeometry width="50" height="50" relative="1" as="geometry">
            <mxPoint x="604.5" y="-36" as="sourcePoint" />
            <mxPoint x="676" y="-36" as="targetPoint" />
            <Array as="points">
              <mxPoint x="641" y="-60" />
            </Array>
          </mxGeometry>
        </mxCell>
        <mxCell id="NbxSy4P5_vYFstT8VovK-21" value="" style="endArrow=classic;html=1;rounded=0;" parent="1" edge="1">
          <mxGeometry width="50" height="50" relative="1" as="geometry">
            <mxPoint x="640" y="-15" as="sourcePoint" />
            <mxPoint x="640" y="-62" as="targetPoint" />
          </mxGeometry>
        </mxCell>
        <mxCell id="NbxSy4P5_vYFstT8VovK-22" value="" style="endArrow=none;html=1;rounded=0;" parent="1" edge="1">
          <mxGeometry width="50" height="50" relative="1" as="geometry">
            <mxPoint x="605" y="-14" as="sourcePoint" />
            <mxPoint x="605" y="-36" as="targetPoint" />
          </mxGeometry>
        </mxCell>
        <mxCell id="NbxSy4P5_vYFstT8VovK-23" value="" style="endArrow=none;html=1;rounded=0;" parent="1" edge="1">
          <mxGeometry width="50" height="50" relative="1" as="geometry">
            <mxPoint x="676" y="-15" as="sourcePoint" />
            <mxPoint x="676" y="-36" as="targetPoint" />
          </mxGeometry>
        </mxCell>
        <mxCell id="NbxSy4P5_vYFstT8VovK-24" value="&amp;nbsp; &amp;nbsp; &amp;nbsp; Secrets&lt;div&gt;&amp;nbsp; &amp;nbsp; &amp;nbsp; &amp;nbsp; Manager&lt;/div&gt;" style="rounded=1;whiteSpace=wrap;html=1;fillColor=#C7FFD6;fontStyle=1;strokeColor=#425447;" parent="1" vertex="1">
          <mxGeometry x="332.75" y="-101" width="110.25" height="44" as="geometry" />
        </mxCell>
        <mxCell id="NbxSy4P5_vYFstT8VovK-27" value="" style="sketch=0;outlineConnect=0;fontColor=#232F3E;gradientColor=none;fillColor=#425447;strokeColor=none;dashed=0;verticalLabelPosition=bottom;verticalAlign=top;align=center;html=1;fontSize=12;fontStyle=0;aspect=fixed;pointerEvents=1;shape=mxgraph.aws4.data_encryption_key;" parent="1" vertex="1">
          <mxGeometry x="336" y="-99" width="32.59" height="41" as="geometry" />
        </mxCell>
        <mxCell id="NbxSy4P5_vYFstT8VovK-28" value="" style="endArrow=none;html=1;rounded=0;edgeStyle=elbowEdgeStyle;" parent="1" edge="1">
          <mxGeometry width="50" height="50" relative="1" as="geometry">
            <mxPoint x="354.5" y="-35" as="sourcePoint" />
            <mxPoint x="426" y="-35" as="targetPoint" />
            <Array as="points">
              <mxPoint x="391" y="-59" />
            </Array>
          </mxGeometry>
        </mxCell>
        <mxCell id="NbxSy4P5_vYFstT8VovK-29" value="" style="endArrow=classic;html=1;rounded=0;" parent="1" edge="1">
          <mxGeometry width="50" height="50" relative="1" as="geometry">
            <mxPoint x="390" y="-14" as="sourcePoint" />
            <mxPoint x="390" y="-61" as="targetPoint" />
          </mxGeometry>
        </mxCell>
        <mxCell id="NbxSy4P5_vYFstT8VovK-30" value="" style="endArrow=none;html=1;rounded=0;" parent="1" edge="1">
          <mxGeometry width="50" height="50" relative="1" as="geometry">
            <mxPoint x="355" y="-13" as="sourcePoint" />
            <mxPoint x="355" y="-35" as="targetPoint" />
          </mxGeometry>
        </mxCell>
        <mxCell id="NbxSy4P5_vYFstT8VovK-31" value="" style="endArrow=none;html=1;rounded=0;" parent="1" edge="1">
          <mxGeometry width="50" height="50" relative="1" as="geometry">
            <mxPoint x="426" y="-14" as="sourcePoint" />
            <mxPoint x="426" y="-35" as="targetPoint" />
          </mxGeometry>
        </mxCell>
        <mxCell id="OpT-MC_qUvA9qBk__BMZ-1" value="" style="endArrow=none;html=1;rounded=0;edgeStyle=elbowEdgeStyle;" parent="1" edge="1">
          <mxGeometry width="50" height="50" relative="1" as="geometry">
            <mxPoint x="-52" y="-119" as="sourcePoint" />
            <mxPoint x="19.5" y="-119" as="targetPoint" />
            <Array as="points">
              <mxPoint x="-15.5" y="-143" />
            </Array>
          </mxGeometry>
        </mxCell>
        <mxCell id="OpT-MC_qUvA9qBk__BMZ-2" value="" style="endArrow=classic;html=1;rounded=0;" parent="1" edge="1">
          <mxGeometry width="50" height="50" relative="1" as="geometry">
            <mxPoint x="-16.5" y="-98" as="sourcePoint" />
            <mxPoint x="-16.5" y="-145" as="targetPoint" />
          </mxGeometry>
        </mxCell>
        <mxCell id="OpT-MC_qUvA9qBk__BMZ-3" value="" style="endArrow=none;html=1;rounded=0;" parent="1" edge="1">
          <mxGeometry width="50" height="50" relative="1" as="geometry">
            <mxPoint x="-51.5" y="-97" as="sourcePoint" />
            <mxPoint x="-51.5" y="-119" as="targetPoint" />
          </mxGeometry>
        </mxCell>
        <mxCell id="OpT-MC_qUvA9qBk__BMZ-4" value="" style="endArrow=none;html=1;rounded=0;" parent="1" edge="1">
          <mxGeometry width="50" height="50" relative="1" as="geometry">
            <mxPoint x="19.5" y="-98" as="sourcePoint" />
            <mxPoint x="19.5" y="-119" as="targetPoint" />
          </mxGeometry>
        </mxCell>
        <mxCell id="qbweRd84zbe2jINMGlCN-61" style="edgeStyle=orthogonalEdgeStyle;rounded=0;orthogonalLoop=1;jettySize=auto;html=1;entryX=0.25;entryY=1;entryDx=0;entryDy=0;strokeWidth=1;startArrow=block;startFill=0;strokeColor=#005700;" parent="1" source="OpT-MC_qUvA9qBk__BMZ-7" target="urqGO7AWTMC_Ui9AjQ2h-7" edge="1">
          <mxGeometry relative="1" as="geometry" />
        </mxCell>
        <mxCell id="OpT-MC_qUvA9qBk__BMZ-7" value="" style="editableCssRules=.*;html=1;shape=image;verticalLabelPosition=bottom;labelBackgroundColor=#ffffff;verticalAlign=top;aspect=fixed;imageAspect=0;image=data:image/svg+xml,PHN2ZyB4bWxucz0iaHR0cDovL3d3dy53My5vcmcvMjAwMC9zdmciIHhtbG5zOnY9Imh0dHBzOi8vdmVjdGEuaW8vbmFubyIgd2lkdGg9IjIwIiBoZWlnaHQ9IjIwIiB2aWV3Qm94PSIwIDAgMjAgMjAiPiYjeGE7CTxzdHlsZSB0eXBlPSJ0ZXh0L2NzcyI+LnN0MCB7IGZpbGw6IHJnYigwLCAwLCAwKTsgfSAuc3QxIHsgZmlsbDogcmdiKDAsIDAsIDApOyB9IC5zdDIgeyBmaWxsOiByZ2IoMCwgMCwgMCk7IH0gPC9zdHlsZT4mI3hhOwk8cGF0aCBjbGFzcz0ic3QxIiBkPSJNMTMuMTMgNS42M1YzLjIxTDEwIDB2Mi40MXptMy43NSA3LjVMMjAgMTBoLTIuNWwtMy4xMiAzLjEzem0tMTMuNzUgMEwwIDEwaDIuNWwzLjEzIDMuMTN6bTEwIDEuMjV2Mi40MUwxMCAyMHYtMi40MXoiIGZpbGwtcnVsZT0iZXZlbm9kZCIvPiYjeGE7CTxwYXRoIGNsYXNzPSJzdDIiIGQ9Ik02Ljg4IDUuNjNMMTAgMi40MVYwTDYuODggMy4yMXpNMTcuNSAxMEgyMGwtMy4xMi0zLjEyaC0yLjV6bS0xNSAwSDBsMy4xMy0zLjEyaDIuNXptNC4zOCA0LjM4TDEwIDE3LjU5VjIwbC0zLjEyLTMuMjF6bTAtNy41aDYuMjV2Ni4yNUg2Ljg4eiIgZmlsbC1ydWxlPSJldmVub2RkIi8+JiN4YTsJPHBhdGggY2xhc3M9InN0MSIgZD0iTTYuODggMTMuMTNsNi4yNS02LjI1djYuMjV6IiBmaWxsLXJ1bGU9ImV2ZW5vZGQiLz4mI3hhOwk8cGF0aCBjbGFzcz0ic3QwIiBkPSJNMTAgMTBsMy4xMy0zLjEydjYuMjV6IiBmaWxsLXJ1bGU9ImV2ZW5vZGQiLz4mI3hhOzwvc3ZnPg==;" parent="1" vertex="1">
          <mxGeometry x="-143.25" y="114.5" width="57.5" height="57.5" as="geometry" />
        </mxCell>
        <mxCell id="uyhA110zfRlWLcyk9HhF-2" value="" style="rounded=1;whiteSpace=wrap;html=1;fillColor=#EBA80C;strokeColor=#362603;fontColor=#000000;gradientColor=#705006;gradientDirection=south;shadow=1;" parent="1" vertex="1">
          <mxGeometry x="218" y="27" width="64.75" height="41.51" as="geometry" />
        </mxCell>
        <mxCell id="uyhA110zfRlWLcyk9HhF-3" value="" style="rounded=1;whiteSpace=wrap;html=1;fillColor=#EBA80C;strokeColor=#362603;fontColor=#000000;gradientColor=#705006;gradientDirection=south;shadow=1;" parent="1" vertex="1">
          <mxGeometry x="222.75" y="32" width="68" height="40.51" as="geometry" />
        </mxCell>
        <mxCell id="5i6Ug29ZbOM_D7j-h46M-13" style="edgeStyle=orthogonalEdgeStyle;rounded=0;orthogonalLoop=1;jettySize=auto;html=1;exitX=0.25;exitY=0.5;exitDx=0;exitDy=0;entryX=0.5;entryY=1;entryDx=0;entryDy=0;strokeWidth=1;strokeColor=#005700;startArrow=block;startFill=0;exitPerimeter=0;" edge="1" parent="1" source="5i6Ug29ZbOM_D7j-h46M-22" target="urqGO7AWTMC_Ui9AjQ2h-7">
          <mxGeometry relative="1" as="geometry">
            <Array as="points">
              <mxPoint x="149" y="56" />
            </Array>
          </mxGeometry>
        </mxCell>
        <mxCell id="uyhA110zfRlWLcyk9HhF-4" value="Billing&lt;div&gt;Service&lt;/div&gt;" style="rounded=1;whiteSpace=wrap;html=1;fillColor=#EBA80C;strokeColor=#362603;fontColor=#FFFFFF;gradientColor=#705006;gradientDirection=south;shadow=1;fontStyle=1" parent="1" vertex="1">
          <mxGeometry x="227.75" y="36" width="69" height="39.51" as="geometry" />
        </mxCell>
        <mxCell id="uyhA110zfRlWLcyk9HhF-11" value="Payment&amp;nbsp;&lt;span style=&quot;background-color: initial;&quot;&gt;Gateway&lt;/span&gt;" style="rounded=1;whiteSpace=wrap;html=1;shadow=1;fontStyle=1;fillColor=#C5A9E8;strokeColor=#645575;strokeWidth=2;direction=south;" parent="1" vertex="1">
          <mxGeometry x="-203.44" y="503.49" width="170" height="75.51" as="geometry" />
        </mxCell>
        <mxCell id="TE_OKRkOsK2o-EMoypv2-6" value="&lt;font style=&quot;font-size: 11px;&quot;&gt;Third Party Integration&lt;/font&gt;" style="text;html=1;align=center;verticalAlign=middle;resizable=0;points=[];autosize=1;strokeColor=none;fillColor=none;fontSize=16;rounded=0;fontStyle=1" parent="1" vertex="1">
          <mxGeometry x="-69" y="475" width="127" height="31" as="geometry" />
        </mxCell>
        <mxCell id="TE_OKRkOsK2o-EMoypv2-8" value="&amp;nbsp; &amp;nbsp; &amp;nbsp; &amp;nbsp; &amp;nbsp; &amp;nbsp;&amp;nbsp;&lt;font color=&quot;#ffffff&quot;&gt;Caching&lt;/font&gt;" style="rounded=1;whiteSpace=wrap;html=1;fillColor=#036897;fontStyle=1;strokeColor=#02354D;" parent="1" vertex="1">
          <mxGeometry x="710" y="-102.5" width="94" height="44" as="geometry" />
        </mxCell>
        <mxCell id="TE_OKRkOsK2o-EMoypv2-14" value="Cloud Managed Services" style="text;html=1;align=center;verticalAlign=middle;resizable=0;points=[];autosize=1;strokeColor=none;fillColor=none;fontSize=11;rounded=0;fontStyle=1" parent="1" vertex="1">
          <mxGeometry x="88" y="-130" width="141" height="25" as="geometry" />
        </mxCell>
        <mxCell id="TE_OKRkOsK2o-EMoypv2-16" value="Microservices" style="text;html=1;align=center;verticalAlign=middle;resizable=0;points=[];autosize=1;strokeColor=none;fillColor=none;fontSize=11;rounded=0;fontStyle=1" parent="1" vertex="1">
          <mxGeometry x="194.25" y="-14" width="85" height="25" as="geometry" />
        </mxCell>
        <mxCell id="TE_OKRkOsK2o-EMoypv2-18" style="edgeStyle=none;curved=0;rounded=0;orthogonalLoop=1;jettySize=auto;html=1;exitX=0;exitY=0.5;exitDx=0;exitDy=0;entryX=0;entryY=0.5;entryDx=0;entryDy=0;fontSize=12;startSize=8;endSize=8;fillColor=#008a00;strokeColor=#851B85;strokeWidth=1;startArrow=block;startFill=0;" parent="1" edge="1">
          <mxGeometry relative="1" as="geometry">
            <mxPoint x="-124" y="66.75" as="sourcePoint" />
            <mxPoint x="4" y="63.25" as="targetPoint" />
            <Array as="points" />
          </mxGeometry>
        </mxCell>
        <mxCell id="TE_OKRkOsK2o-EMoypv2-19" value="Synchronous - https/Rest&lt;div&gt;Third party communication&lt;/div&gt;" style="text;html=1;align=center;verticalAlign=middle;resizable=0;points=[];autosize=1;fontStyle=1" parent="1" vertex="1">
          <mxGeometry x="-311" y="47" width="159" height="41" as="geometry" />
        </mxCell>
        <mxCell id="TE_OKRkOsK2o-EMoypv2-25" value="" style="verticalLabelPosition=bottom;aspect=fixed;html=1;verticalAlign=top;fillColor=strokeColor;align=center;outlineConnect=0;shape=mxgraph.fluid_power.x11280;points=[[0,0.25,0],[0,0.75,0]];strokeColor=#FFFFFF;labelBackgroundColor=none;strokeWidth=2;" parent="1" vertex="1">
          <mxGeometry x="-26.14" y="269.5" width="48.19" height="36" as="geometry" />
        </mxCell>
        <mxCell id="TE_OKRkOsK2o-EMoypv2-31" value="" style="sketch=0;outlineConnect=0;fontColor=#232F3E;gradientColor=none;fillColor=#FFFFFF;strokeColor=none;dashed=0;verticalLabelPosition=bottom;verticalAlign=top;align=center;html=1;fontSize=12;fontStyle=0;aspect=fixed;pointerEvents=1;shape=mxgraph.aws4.waf_managed_rule;" parent="1" vertex="1">
          <mxGeometry x="-24.55" y="316" width="44" height="44" as="geometry" />
        </mxCell>
        <mxCell id="TE_OKRkOsK2o-EMoypv2-35" value="" style="sketch=0;points=[[0.015,0.015,0],[0.985,0.015,0],[0.985,0.985,0],[0.015,0.985,0],[0.25,0,0],[0.5,0,0],[0.75,0,0],[1,0.25,0],[1,0.5,0],[1,0.75,0],[0.75,1,0],[0.5,1,0],[0.25,1,0],[0,0.75,0],[0,0.5,0],[0,0.25,0]];verticalLabelPosition=bottom;html=1;verticalAlign=top;aspect=fixed;align=center;pointerEvents=1;shape=mxgraph.cisco19.rect;prIcon=appnav;fillColor=none;strokeColor=#FFFFFF;strokeWidth=3;" parent="1" vertex="1">
          <mxGeometry x="-23.05" y="215.5" width="44.5" height="44.5" as="geometry" />
        </mxCell>
        <mxCell id="TE_OKRkOsK2o-EMoypv2-36" value="" style="sketch=0;points=[[0.015,0.015,0],[0.985,0.015,0],[0.985,0.985,0],[0.015,0.985,0],[0.25,0,0],[0.5,0,0],[0.75,0,0],[1,0.25,0],[1,0.5,0],[1,0.75,0],[0.75,1,0],[0.5,1,0],[0.25,1,0],[0,0.75,0],[0,0.5,0],[0,0.25,0]];verticalLabelPosition=bottom;html=1;verticalAlign=top;aspect=fixed;align=center;pointerEvents=1;shape=mxgraph.cisco19.rect;prIcon=appnav;fillColor=none;strokeColor=#FFFFFF;" parent="1" vertex="1">
          <mxGeometry x="714" y="-99.5" width="36.25" height="36.25" as="geometry" />
        </mxCell>
        <mxCell id="TE_OKRkOsK2o-EMoypv2-37" value="Cache" style="text;html=1;align=center;verticalAlign=middle;resizable=0;points=[];autosize=1;strokeColor=none;fillColor=none;fontSize=11;rounded=0;fontStyle=1" parent="1" vertex="1">
          <mxGeometry x="-73.05" y="225.75" width="50" height="25" as="geometry" />
        </mxCell>
        <mxCell id="TE_OKRkOsK2o-EMoypv2-38" value="Rate&lt;div style=&quot;font-size: 11px;&quot;&gt;Limit&lt;/div&gt;" style="text;html=1;align=center;verticalAlign=middle;resizable=0;points=[];autosize=1;strokeColor=none;fillColor=none;fontSize=11;rounded=0;fontStyle=1" parent="1" vertex="1">
          <mxGeometry x="-70.05" y="270" width="41" height="38" as="geometry" />
        </mxCell>
        <mxCell id="TE_OKRkOsK2o-EMoypv2-39" value="WAF" style="text;html=1;align=center;verticalAlign=middle;resizable=0;points=[];autosize=1;strokeColor=none;fillColor=none;fontSize=11;rounded=0;fontStyle=1" parent="1" vertex="1">
          <mxGeometry x="-74.05" y="329" width="42" height="25" as="geometry" />
        </mxCell>
        <mxCell id="TE_OKRkOsK2o-EMoypv2-41" value="Auth&amp;nbsp;&lt;div style=&quot;font-size: 11px;&quot;&gt;&amp;amp;&lt;/div&gt;&lt;div style=&quot;font-size: 11px;&quot;&gt;Authz&lt;/div&gt;" style="text;html=1;align=center;verticalAlign=middle;resizable=0;points=[];autosize=1;strokeColor=none;fillColor=none;fontSize=11;rounded=0;fontStyle=1" parent="1" vertex="1">
          <mxGeometry x="-75.05" y="376.5" width="46" height="52" as="geometry" />
        </mxCell>
        <mxCell id="TE_OKRkOsK2o-EMoypv2-44" value="" style="sketch=0;pointerEvents=1;shadow=0;dashed=0;html=1;strokeColor=none;fillColor=#FFFFFF;labelPosition=center;verticalLabelPosition=bottom;verticalAlign=top;outlineConnect=0;align=center;shape=mxgraph.office.users.administrator;" parent="1" vertex="1">
          <mxGeometry x="-28.57" y="375" width="53.05" height="53" as="geometry" />
        </mxCell>
        <mxCell id="TE_OKRkOsK2o-EMoypv2-45" value="" style="sketch=0;pointerEvents=1;shadow=0;dashed=0;html=1;strokeColor=none;fillColor=#FFFFFF;labelPosition=center;verticalLabelPosition=bottom;verticalAlign=top;outlineConnect=0;align=center;shape=mxgraph.office.users.administrator;" parent="1" vertex="1">
          <mxGeometry x="455" y="-101" width="45" height="43" as="geometry" />
        </mxCell>
        <mxCell id="P7hO2bbnkR11tL--QpdS-56" value="" style="endArrow=none;html=1;rounded=0;edgeStyle=elbowEdgeStyle;" parent="1" edge="1">
          <mxGeometry width="50" height="50" relative="1" as="geometry">
            <mxPoint x="729.5" y="-35" as="sourcePoint" />
            <mxPoint x="801" y="-35" as="targetPoint" />
            <Array as="points">
              <mxPoint x="766" y="-59" />
            </Array>
          </mxGeometry>
        </mxCell>
        <mxCell id="P7hO2bbnkR11tL--QpdS-57" value="" style="endArrow=classic;html=1;rounded=0;" parent="1" edge="1">
          <mxGeometry width="50" height="50" relative="1" as="geometry">
            <mxPoint x="765" y="-14" as="sourcePoint" />
            <mxPoint x="765" y="-61" as="targetPoint" />
          </mxGeometry>
        </mxCell>
        <mxCell id="P7hO2bbnkR11tL--QpdS-58" value="" style="endArrow=none;html=1;rounded=0;" parent="1" edge="1">
          <mxGeometry width="50" height="50" relative="1" as="geometry">
            <mxPoint x="730" y="-13" as="sourcePoint" />
            <mxPoint x="730" y="-35" as="targetPoint" />
          </mxGeometry>
        </mxCell>
        <mxCell id="P7hO2bbnkR11tL--QpdS-59" value="" style="endArrow=none;html=1;rounded=0;" parent="1" edge="1">
          <mxGeometry width="50" height="50" relative="1" as="geometry">
            <mxPoint x="801" y="-14" as="sourcePoint" />
            <mxPoint x="801" y="-35" as="targetPoint" />
          </mxGeometry>
        </mxCell>
        <mxCell id="Z5AxZRiR1ccud-SpPowU-10" style="edgeStyle=orthogonalEdgeStyle;rounded=0;orthogonalLoop=1;jettySize=auto;html=1;entryX=0.5;entryY=1;entryDx=0;entryDy=0;entryPerimeter=0;startArrow=block;startFill=0;strokeWidth=1;" parent="1" source="98wAxy-DsdHwi_wowS8c-1" target="98wAxy-DsdHwi_wowS8c-2" edge="1">
          <mxGeometry relative="1" as="geometry">
            <mxPoint x="-222" y="331.5" as="sourcePoint" />
            <mxPoint x="-222" y="225.6500000000001" as="targetPoint" />
          </mxGeometry>
        </mxCell>
        <mxCell id="Z5AxZRiR1ccud-SpPowU-12" value="&lt;font style=&quot;font-size: 11px;&quot;&gt;Resolve&amp;nbsp;&lt;/font&gt;&lt;span style=&quot;font-size: 11px; background-color: initial;&quot;&gt;DNS&lt;/span&gt;" style="text;html=1;align=center;verticalAlign=middle;resizable=0;points=[];autosize=1;strokeColor=none;fillColor=none;fontSize=16;rounded=0;fontStyle=1;rotation=270;" parent="1" vertex="1">
          <mxGeometry x="-282" y="219.75" width="84" height="31" as="geometry" />
        </mxCell>
        <mxCell id="Z5AxZRiR1ccud-SpPowU-13" value="&lt;span style=&quot;font-size: 11px;&quot;&gt;Static&amp;nbsp;&lt;/span&gt;&lt;span style=&quot;font-size: 11px; background-color: initial;&quot;&gt;Content&lt;/span&gt;" style="text;html=1;align=center;verticalAlign=middle;resizable=0;points=[];autosize=1;strokeColor=none;fillColor=none;fontSize=16;rounded=0;fontStyle=1;rotation=270;" parent="1" vertex="1">
          <mxGeometry x="-171" y="230" width="87" height="31" as="geometry" />
        </mxCell>
        <mxCell id="Z5AxZRiR1ccud-SpPowU-14" value="&lt;span style=&quot;font-size: 11px;&quot;&gt;Service&amp;nbsp;&lt;/span&gt;&lt;span style=&quot;font-size: 11px; background-color: initial;&quot;&gt;Request&lt;/span&gt;" style="text;html=1;align=center;verticalAlign=middle;resizable=0;points=[];autosize=1;strokeColor=none;fillColor=none;fontSize=16;rounded=0;fontStyle=1" parent="1" vertex="1">
          <mxGeometry x="-184" y="312.5" width="99" height="31" as="geometry" />
        </mxCell>
        <mxCell id="Z5AxZRiR1ccud-SpPowU-16" value="&lt;span style=&quot;font-size: 11px;&quot;&gt;Payment Url/&lt;/span&gt;&lt;div&gt;&lt;span style=&quot;font-size: 11px; background-color: initial;&quot;&gt;Payment Status&lt;/span&gt;&lt;/div&gt;" style="text;html=1;align=center;verticalAlign=middle;resizable=0;points=[];autosize=1;strokeColor=none;fillColor=none;fontSize=16;rounded=0;fontStyle=1" parent="1" vertex="1">
          <mxGeometry x="77" y="529" width="96" height="50" as="geometry" />
        </mxCell>
        <mxCell id="Z5AxZRiR1ccud-SpPowU-17" value="&lt;span style=&quot;font-size: 11px;&quot;&gt;Payment&lt;/span&gt;" style="text;html=1;align=center;verticalAlign=middle;resizable=0;points=[];autosize=1;strokeColor=none;fillColor=none;fontSize=16;rounded=0;fontStyle=1;rotation=270;" parent="1" vertex="1">
          <mxGeometry x="-267" y="405" width="61" height="31" as="geometry" />
        </mxCell>
        <mxCell id="98wAxy-DsdHwi_wowS8c-1" value="Browser" style="sketch=0;pointerEvents=1;shadow=0;dashed=0;html=1;strokeColor=none;fillColor=#434445;aspect=fixed;labelPosition=center;verticalLabelPosition=middle;verticalAlign=middle;align=center;outlineConnect=0;shape=mxgraph.vvd.web_browser;fontStyle=1" parent="1" vertex="1">
          <mxGeometry x="-250.37" y="297" width="54.93" height="39" as="geometry" />
        </mxCell>
        <mxCell id="98wAxy-DsdHwi_wowS8c-2" value="" style="sketch=0;points=[[0.015,0.015,0],[0.985,0.015,0],[0.985,0.985,0],[0.015,0.985,0],[0.25,0,0],[0.5,0,0],[0.75,0,0],[1,0.25,0],[1,0.5,0],[1,0.75,0],[0.75,1,0],[0.5,1,0],[0.25,1,0],[0,0.75,0],[0,0.5,0],[0,0.25,0]];verticalLabelPosition=bottom;html=1;verticalAlign=top;aspect=fixed;align=center;pointerEvents=1;shape=mxgraph.cisco19.dns_server;fillColor=#000000;strokeColor=none;" parent="1" vertex="1">
          <mxGeometry x="-237" y="124" width="27.500000000000004" height="50" as="geometry" />
        </mxCell>
        <mxCell id="qbweRd84zbe2jINMGlCN-4" style="edgeStyle=orthogonalEdgeStyle;rounded=0;orthogonalLoop=1;jettySize=auto;html=1;exitX=1;exitY=0.5;exitDx=0;exitDy=0;entryX=0;entryY=0.5;entryDx=0;entryDy=0;entryPerimeter=0;dashed=1;dashPattern=1 1;startArrow=block;startFill=0;" parent="1" source="hqVNRMzppCiJ99_KFiAW-34" target="hqVNRMzppCiJ99_KFiAW-35" edge="1">
          <mxGeometry relative="1" as="geometry" />
        </mxCell>
        <mxCell id="qbweRd84zbe2jINMGlCN-9" style="edgeStyle=orthogonalEdgeStyle;rounded=0;orthogonalLoop=1;jettySize=auto;html=1;exitX=1;exitY=0.5;exitDx=0;exitDy=0;entryX=0;entryY=0;entryDx=0;entryDy=44.25;entryPerimeter=0;dashed=1;dashPattern=1 1;startArrow=block;startFill=0;targetPerimeterSpacing=0;" parent="1" source="ILpzqOGEgMHz32oO7xNn-51" target="ILpzqOGEgMHz32oO7xNn-123" edge="1">
          <mxGeometry relative="1" as="geometry" />
        </mxCell>
        <mxCell id="qbweRd84zbe2jINMGlCN-10" style="edgeStyle=orthogonalEdgeStyle;rounded=0;orthogonalLoop=1;jettySize=auto;html=1;exitX=1;exitY=0.5;exitDx=0;exitDy=0;entryX=0;entryY=0.5;entryDx=0;entryDy=0;entryPerimeter=0;dashed=1;dashPattern=1 1;startArrow=block;startFill=0;" parent="1" source="hqVNRMzppCiJ99_KFiAW-101" target="hqVNRMzppCiJ99_KFiAW-102" edge="1">
          <mxGeometry relative="1" as="geometry" />
        </mxCell>
        <mxCell id="qbweRd84zbe2jINMGlCN-11" value="SQL" style="shape=cylinder3;whiteSpace=wrap;html=1;boundedLbl=1;backgroundOutline=1;size=15;rounded=0;fillColor=#f5f5f5;strokeColor=#666666;gradientColor=#b3b3b3;fontStyle=1" parent="1" vertex="1">
          <mxGeometry x="552.5" y="224.5" width="64" height="76" as="geometry" />
        </mxCell>
        <mxCell id="qbweRd84zbe2jINMGlCN-12" style="edgeStyle=orthogonalEdgeStyle;rounded=0;orthogonalLoop=1;jettySize=auto;html=1;exitX=1;exitY=0.5;exitDx=0;exitDy=0;entryX=0;entryY=0.5;entryDx=0;entryDy=0;entryPerimeter=0;startArrow=block;startFill=0;dashed=1;dashPattern=1 1;" parent="1" source="ILpzqOGEgMHz32oO7xNn-56" target="qbweRd84zbe2jINMGlCN-11" edge="1">
          <mxGeometry relative="1" as="geometry" />
        </mxCell>
        <mxCell id="qbweRd84zbe2jINMGlCN-13" value="&lt;font color=&quot;#000000&quot;&gt;KV&amp;nbsp;&lt;/font&gt;&lt;div&gt;NoSQL&lt;/div&gt;" style="shape=cylinder3;whiteSpace=wrap;html=1;boundedLbl=1;backgroundOutline=1;size=15;rounded=0;fillColor=#f8cecc;strokeColor=#b85450;gradientDirection=north;fontStyle=1" parent="1" vertex="1">
          <mxGeometry x="554" y="330" width="65" height="80" as="geometry" />
        </mxCell>
        <mxCell id="qbweRd84zbe2jINMGlCN-14" style="edgeStyle=orthogonalEdgeStyle;rounded=0;orthogonalLoop=1;jettySize=auto;html=1;exitX=1;exitY=0.5;exitDx=0;exitDy=0;entryX=0;entryY=0.5;entryDx=0;entryDy=0;entryPerimeter=0;dashed=1;dashPattern=1 1;startArrow=block;startFill=0;" parent="1" source="hqVNRMzppCiJ99_KFiAW-54" target="qbweRd84zbe2jINMGlCN-13" edge="1">
          <mxGeometry relative="1" as="geometry" />
        </mxCell>
        <mxCell id="qbweRd84zbe2jINMGlCN-15" value="SQL" style="shape=cylinder3;whiteSpace=wrap;html=1;boundedLbl=1;backgroundOutline=1;size=15;rounded=0;fillColor=#f5f5f5;strokeColor=#666666;gradientColor=#b3b3b3;fontStyle=1" parent="1" vertex="1">
          <mxGeometry x="476" y="388" width="64" height="76" as="geometry" />
        </mxCell>
        <mxCell id="qbweRd84zbe2jINMGlCN-17" style="edgeStyle=orthogonalEdgeStyle;rounded=0;orthogonalLoop=1;jettySize=auto;html=1;exitX=1;exitY=0.5;exitDx=0;exitDy=0;entryX=0;entryY=0.5;entryDx=0;entryDy=0;entryPerimeter=0;dashed=1;dashPattern=1 1;startArrow=block;startFill=0;" parent="1" source="hqVNRMzppCiJ99_KFiAW-87" target="qbweRd84zbe2jINMGlCN-15" edge="1">
          <mxGeometry relative="1" as="geometry" />
        </mxCell>
        <mxCell id="qbweRd84zbe2jINMGlCN-18" value="SQL" style="shape=cylinder3;whiteSpace=wrap;html=1;boundedLbl=1;backgroundOutline=1;size=15;rounded=0;fillColor=#f5f5f5;strokeColor=#666666;gradientColor=#b3b3b3;fontStyle=1" parent="1" vertex="1">
          <mxGeometry x="556" y="437.5" width="64" height="76" as="geometry" />
        </mxCell>
        <mxCell id="qbweRd84zbe2jINMGlCN-20" value="SQL" style="shape=cylinder3;whiteSpace=wrap;html=1;boundedLbl=1;backgroundOutline=1;size=15;rounded=0;fillColor=#f5f5f5;strokeColor=#666666;gradientColor=#b3b3b3;fontStyle=1" parent="1" vertex="1">
          <mxGeometry x="477" y="489" width="64" height="76" as="geometry" />
        </mxCell>
        <mxCell id="qbweRd84zbe2jINMGlCN-21" style="edgeStyle=orthogonalEdgeStyle;rounded=0;orthogonalLoop=1;jettySize=auto;html=1;exitX=1;exitY=0.5;exitDx=0;exitDy=0;entryX=0;entryY=0;entryDx=0;entryDy=49.5;entryPerimeter=0;dashed=1;dashPattern=1 1;startArrow=block;startFill=0;" parent="1" source="hqVNRMzppCiJ99_KFiAW-78" target="qbweRd84zbe2jINMGlCN-20" edge="1">
          <mxGeometry relative="1" as="geometry" />
        </mxCell>
        <mxCell id="qbweRd84zbe2jINMGlCN-22" value="Databases" style="text;html=1;align=center;verticalAlign=middle;resizable=0;points=[];autosize=1;strokeColor=none;fillColor=none;fontSize=11;rounded=0;fontStyle=1" parent="1" vertex="1">
          <mxGeometry x="561" y="40" width="71" height="25" as="geometry" />
        </mxCell>
        <mxCell id="qbweRd84zbe2jINMGlCN-38" value="Asynchronous&lt;div&gt;Communication&lt;/div&gt;" style="text;html=1;align=center;verticalAlign=middle;resizable=0;points=[];autosize=1;strokeColor=none;fillColor=none;fontSize=11;rounded=0;fontStyle=1" parent="1" vertex="1">
          <mxGeometry x="697" y="-3" width="94" height="38" as="geometry" />
        </mxCell>
        <mxCell id="qbweRd84zbe2jINMGlCN-63" style="edgeStyle=orthogonalEdgeStyle;rounded=0;orthogonalLoop=1;jettySize=auto;html=1;exitX=1.021;exitY=0.887;exitDx=0;exitDy=0;entryX=0;entryY=0.5;entryDx=0;entryDy=0;exitPerimeter=0;dashed=1;strokeColor=#B20000;" parent="1" source="qbweRd84zbe2jINMGlCN-48" target="qbweRd84zbe2jINMGlCN-50" edge="1">
          <mxGeometry relative="1" as="geometry" />
        </mxCell>
        <mxCell id="qbweRd84zbe2jINMGlCN-65" style="edgeStyle=orthogonalEdgeStyle;rounded=0;orthogonalLoop=1;jettySize=auto;html=1;exitX=0.97;exitY=0.107;exitDx=0;exitDy=0;entryX=0;entryY=0.5;entryDx=0;entryDy=0;exitPerimeter=0;dashed=1;strokeColor=#B20000;" parent="1" source="qbweRd84zbe2jINMGlCN-48" target="qbweRd84zbe2jINMGlCN-49" edge="1">
          <mxGeometry relative="1" as="geometry" />
        </mxCell>
        <mxCell id="qbweRd84zbe2jINMGlCN-48" value="Topic" style="rounded=1;whiteSpace=wrap;html=1;fillColor=#e6d0de;strokeColor=#996185;gradientColor=#d5739d;" parent="1" vertex="1">
          <mxGeometry x="674" y="130.5" width="43" height="336.5" as="geometry" />
        </mxCell>
        <mxCell id="qbweRd84zbe2jINMGlCN-53" style="edgeStyle=orthogonalEdgeStyle;rounded=0;orthogonalLoop=1;jettySize=auto;html=1;entryX=0.5;entryY=0;entryDx=0;entryDy=0;endArrow=none;endFill=0;dashed=1;dashPattern=8 8;" parent="1" source="qbweRd84zbe2jINMGlCN-49" target="qbweRd84zbe2jINMGlCN-50" edge="1">
          <mxGeometry relative="1" as="geometry" />
        </mxCell>
        <mxCell id="qbweRd84zbe2jINMGlCN-49" value="Queue" style="rounded=1;whiteSpace=wrap;html=1;fillColor=#f5f5f5;gradientColor=#b3b3b3;strokeColor=#666666;" parent="1" vertex="1">
          <mxGeometry x="759" y="130.5" width="43" height="71.5" as="geometry" />
        </mxCell>
        <mxCell id="qbweRd84zbe2jINMGlCN-50" value="Queue" style="rounded=1;whiteSpace=wrap;html=1;fillColor=#f5f5f5;gradientColor=#b3b3b3;strokeColor=#666666;" parent="1" vertex="1">
          <mxGeometry x="759" y="391.5" width="43" height="75.5" as="geometry" />
        </mxCell>
        <mxCell id="qbweRd84zbe2jINMGlCN-60" style="edgeStyle=orthogonalEdgeStyle;rounded=0;orthogonalLoop=1;jettySize=auto;html=1;entryX=-0.048;entryY=0.53;entryDx=0;entryDy=0;entryPerimeter=0;" parent="1" source="ILpzqOGEgMHz32oO7xNn-1" target="98wAxy-DsdHwi_wowS8c-1" edge="1">
          <mxGeometry relative="1" as="geometry" />
        </mxCell>
        <mxCell id="5i6Ug29ZbOM_D7j-h46M-14" value="&amp;nbsp; &amp;nbsp; &amp;nbsp; &amp;nbsp; &amp;nbsp; &amp;nbsp; &amp;nbsp; Email&amp;nbsp;&lt;div&gt;&amp;nbsp; &amp;nbsp; &amp;nbsp; &amp;nbsp; &amp;nbsp; &amp;nbsp; &amp;nbsp; &amp;nbsp;Sender&lt;/div&gt;" style="rounded=1;whiteSpace=wrap;html=1;fillColor=#6d8764;fontStyle=1;strokeColor=#3A5431;fontColor=#ffffff;" vertex="1" parent="1">
          <mxGeometry x="211.75" y="-101.5" width="110.25" height="44" as="geometry" />
        </mxCell>
        <mxCell id="5i6Ug29ZbOM_D7j-h46M-15" value="" style="verticalLabelPosition=bottom;shadow=0;dashed=0;align=center;html=1;verticalAlign=top;strokeWidth=1;shape=mxgraph.mockup.misc.mail2;strokeColor=#999999;" vertex="1" parent="1">
          <mxGeometry x="214" y="-99" width="54" height="38" as="geometry" />
        </mxCell>
        <mxCell id="5i6Ug29ZbOM_D7j-h46M-20" style="edgeStyle=orthogonalEdgeStyle;rounded=0;orthogonalLoop=1;jettySize=auto;html=1;exitX=1.012;exitY=0.021;exitDx=0;exitDy=0;entryX=0.006;entryY=0.017;entryDx=0;entryDy=0;entryPerimeter=0;exitPerimeter=0;strokeColor=#B20000;strokeWidth=1;dashed=1;" edge="1" parent="1" source="TE_OKRkOsK2o-EMoypv2-15" target="P7hO2bbnkR11tL--QpdS-53">
          <mxGeometry relative="1" as="geometry" />
        </mxCell>
        <mxCell id="5i6Ug29ZbOM_D7j-h46M-21" style="edgeStyle=orthogonalEdgeStyle;rounded=0;orthogonalLoop=1;jettySize=auto;html=1;entryX=0.993;entryY=0.052;entryDx=0;entryDy=0;entryPerimeter=0;strokeColor=#B20000;strokeWidth=1;dashed=1;" edge="1" parent="1" target="TE_OKRkOsK2o-EMoypv2-15">
          <mxGeometry relative="1" as="geometry">
            <mxPoint x="661" y="21" as="sourcePoint" />
          </mxGeometry>
        </mxCell>
        <mxCell id="5i6Ug29ZbOM_D7j-h46M-23" value="" style="edgeStyle=orthogonalEdgeStyle;rounded=0;orthogonalLoop=1;jettySize=auto;html=1;exitX=0;exitY=0.5;exitDx=0;exitDy=0;entryX=0.5;entryY=1;entryDx=0;entryDy=0;strokeWidth=1;strokeColor=#005700;startArrow=block;startFill=0;" edge="1" parent="1" source="uyhA110zfRlWLcyk9HhF-4" target="5i6Ug29ZbOM_D7j-h46M-22">
          <mxGeometry relative="1" as="geometry">
            <mxPoint x="228" y="56" as="sourcePoint" />
            <mxPoint x="149" y="-58" as="targetPoint" />
          </mxGeometry>
        </mxCell>
        <mxCell id="5i6Ug29ZbOM_D7j-h46M-22" value="&amp;nbsp; ILBS" style="shape=xor;whiteSpace=wrap;html=1;fontSize=8;fillColor=#a0522d;fontColor=#ffffff;strokeColor=#6D1F00;" vertex="1" parent="1">
          <mxGeometry x="201" y="46.260000000000005" width="28" height="19" as="geometry" />
        </mxCell>
        <mxCell id="5i6Ug29ZbOM_D7j-h46M-24" value="&amp;nbsp; ILBS" style="shape=xor;whiteSpace=wrap;html=1;fontSize=8;fillColor=#a0522d;fontColor=#ffffff;strokeColor=#6D1F00;" vertex="1" parent="1">
          <mxGeometry x="305.25" y="21.000000000000007" width="28" height="19" as="geometry" />
        </mxCell>
        <mxCell id="5i6Ug29ZbOM_D7j-h46M-29" value="" style="edgeStyle=orthogonalEdgeStyle;rounded=0;orthogonalLoop=1;jettySize=auto;html=1;exitX=0.5;exitY=1;exitDx=0;exitDy=0;entryX=0.25;entryY=0.5;entryDx=0;entryDy=0;strokeWidth=1;strokeColor=#005700;startArrow=block;startFill=0;entryPerimeter=0;" edge="1" parent="1" source="3KepqCRreSBxK8r_iUo3-4" target="5i6Ug29ZbOM_D7j-h46M-25">
          <mxGeometry relative="1" as="geometry">
            <mxPoint x="147" y="178" as="sourcePoint" />
            <mxPoint x="334" y="97" as="targetPoint" />
            <Array as="points">
              <mxPoint x="147" y="97" />
              <mxPoint x="312" y="97" />
            </Array>
          </mxGeometry>
        </mxCell>
        <mxCell id="5i6Ug29ZbOM_D7j-h46M-25" value="&amp;nbsp; ILBS" style="shape=xor;whiteSpace=wrap;html=1;fontSize=8;fillColor=#a0522d;fontColor=#ffffff;strokeColor=#6D1F00;" vertex="1" parent="1">
          <mxGeometry x="305.25" y="87" width="28" height="19" as="geometry" />
        </mxCell>
        <mxCell id="5i6Ug29ZbOM_D7j-h46M-31" value="" style="edgeStyle=orthogonalEdgeStyle;rounded=0;orthogonalLoop=1;jettySize=auto;html=1;exitX=0.096;exitY=1;exitDx=0;exitDy=0;entryX=0.25;entryY=0.5;entryDx=0;entryDy=0;strokeWidth=1;strokeColor=#005700;exitPerimeter=0;startArrow=block;startFill=0;entryPerimeter=0;" edge="1" parent="1" source="3KepqCRreSBxK8r_iUo3-4" target="5i6Ug29ZbOM_D7j-h46M-30">
          <mxGeometry relative="1" as="geometry">
            <mxPoint x="166" y="178" as="sourcePoint" />
            <mxPoint x="240" y="145" as="targetPoint" />
            <Array as="points">
              <mxPoint x="166" y="145" />
            </Array>
          </mxGeometry>
        </mxCell>
        <mxCell id="5i6Ug29ZbOM_D7j-h46M-30" value="&amp;nbsp; ILBS" style="shape=xor;whiteSpace=wrap;html=1;fontSize=8;fillColor=#a0522d;fontColor=#ffffff;strokeColor=#6D1F00;" vertex="1" parent="1">
          <mxGeometry x="217" y="135.5" width="28" height="19" as="geometry" />
        </mxCell>
        <mxCell id="5i6Ug29ZbOM_D7j-h46M-33" value="" style="edgeStyle=orthogonalEdgeStyle;rounded=0;orthogonalLoop=1;jettySize=auto;html=1;exitX=-0.029;exitY=0.93;exitDx=0;exitDy=0;entryX=0.25;entryY=0.5;entryDx=0;entryDy=0;exitPerimeter=0;strokeColor=#005700;strokeWidth=1;startArrow=block;startFill=0;entryPerimeter=0;" edge="1" parent="1" source="3KepqCRreSBxK8r_iUo3-4" target="5i6Ug29ZbOM_D7j-h46M-32">
          <mxGeometry relative="1" as="geometry">
            <mxPoint x="169" y="187" as="sourcePoint" />
            <mxPoint x="328" y="187" as="targetPoint" />
          </mxGeometry>
        </mxCell>
        <mxCell id="5i6Ug29ZbOM_D7j-h46M-32" value="&amp;nbsp; ILBS" style="shape=xor;whiteSpace=wrap;html=1;fontSize=8;fillColor=#a0522d;fontColor=#ffffff;strokeColor=#6D1F00;" vertex="1" parent="1">
          <mxGeometry x="300.25" y="192" width="28" height="19" as="geometry" />
        </mxCell>
        <mxCell id="5i6Ug29ZbOM_D7j-h46M-35" value="" style="edgeStyle=orthogonalEdgeStyle;rounded=0;orthogonalLoop=1;jettySize=auto;html=1;exitX=0;exitY=0.75;exitDx=0;exitDy=0;entryX=0.25;entryY=0.5;entryDx=0;entryDy=0;entryPerimeter=0;strokeColor=#005700;strokeWidth=1;startArrow=block;startFill=0;" edge="1" parent="1" source="3KepqCRreSBxK8r_iUo3-4" target="5i6Ug29ZbOM_D7j-h46M-34">
          <mxGeometry relative="1" as="geometry">
            <mxPoint x="170" y="260" as="sourcePoint" />
            <mxPoint x="241" y="259" as="targetPoint" />
          </mxGeometry>
        </mxCell>
        <mxCell id="5i6Ug29ZbOM_D7j-h46M-34" value="&amp;nbsp; ILBS" style="shape=xor;whiteSpace=wrap;html=1;fontSize=8;fillColor=#a0522d;fontColor=#ffffff;strokeColor=#6D1F00;" vertex="1" parent="1">
          <mxGeometry x="214" y="250.5" width="28" height="19" as="geometry" />
        </mxCell>
        <mxCell id="5i6Ug29ZbOM_D7j-h46M-37" value="" style="edgeStyle=orthogonalEdgeStyle;rounded=0;orthogonalLoop=1;jettySize=auto;html=1;exitX=-0.049;exitY=0.579;exitDx=0;exitDy=0;entryX=0.25;entryY=0.5;entryDx=0;entryDy=0;exitPerimeter=0;strokeColor=#005700;strokeWidth=1;startArrow=block;startFill=0;entryPerimeter=0;" edge="1" parent="1" source="3KepqCRreSBxK8r_iUo3-4" target="5i6Ug29ZbOM_D7j-h46M-36">
          <mxGeometry relative="1" as="geometry">
            <mxPoint x="172" y="315" as="sourcePoint" />
            <mxPoint x="327" y="316" as="targetPoint" />
          </mxGeometry>
        </mxCell>
        <mxCell id="5i6Ug29ZbOM_D7j-h46M-36" value="&amp;nbsp; ILBS" style="shape=xor;whiteSpace=wrap;html=1;fontSize=8;fillColor=#a0522d;fontColor=#ffffff;strokeColor=#6D1F00;" vertex="1" parent="1">
          <mxGeometry x="298.5" y="306.25" width="28" height="19" as="geometry" />
        </mxCell>
        <mxCell id="5i6Ug29ZbOM_D7j-h46M-39" value="" style="edgeStyle=orthogonalEdgeStyle;rounded=0;orthogonalLoop=1;jettySize=auto;html=1;exitX=0.005;exitY=0.422;exitDx=0;exitDy=0;entryX=0.25;entryY=0.5;entryDx=0;entryDy=0;exitPerimeter=0;strokeWidth=1;strokeColor=#005700;startArrow=block;startFill=0;entryPerimeter=0;" edge="1" parent="1" source="3KepqCRreSBxK8r_iUo3-4" target="5i6Ug29ZbOM_D7j-h46M-38">
          <mxGeometry relative="1" as="geometry">
            <mxPoint x="170" y="366" as="sourcePoint" />
            <mxPoint x="242" y="366" as="targetPoint" />
          </mxGeometry>
        </mxCell>
        <mxCell id="5i6Ug29ZbOM_D7j-h46M-38" value="&amp;nbsp; ILBS" style="shape=xor;whiteSpace=wrap;html=1;fontSize=8;fillColor=#a0522d;fontColor=#ffffff;strokeColor=#6D1F00;" vertex="1" parent="1">
          <mxGeometry x="214" y="356.5" width="28" height="19" as="geometry" />
        </mxCell>
        <mxCell id="5i6Ug29ZbOM_D7j-h46M-41" value="" style="edgeStyle=orthogonalEdgeStyle;rounded=0;orthogonalLoop=1;jettySize=auto;html=1;exitX=0;exitY=0.25;exitDx=0;exitDy=0;entryX=0.25;entryY=0.5;entryDx=0;entryDy=0;strokeWidth=1;strokeColor=#005700;startArrow=block;startFill=0;entryPerimeter=0;" edge="1" parent="1" source="3KepqCRreSBxK8r_iUo3-4" target="5i6Ug29ZbOM_D7j-h46M-40">
          <mxGeometry relative="1" as="geometry">
            <mxPoint x="170" y="423" as="sourcePoint" />
            <mxPoint x="327" y="423" as="targetPoint" />
          </mxGeometry>
        </mxCell>
        <mxCell id="5i6Ug29ZbOM_D7j-h46M-40" value="&amp;nbsp; ILBS" style="shape=xor;whiteSpace=wrap;html=1;fontSize=8;fillColor=#a0522d;fontColor=#ffffff;strokeColor=#6D1F00;" vertex="1" parent="1">
          <mxGeometry x="298.5" y="413" width="28" height="19" as="geometry" />
        </mxCell>
        <mxCell id="5i6Ug29ZbOM_D7j-h46M-42" value="&amp;nbsp; ILBS" style="shape=xor;whiteSpace=wrap;html=1;fontSize=8;fillColor=#a0522d;fontColor=#ffffff;strokeColor=#6D1F00;" vertex="1" parent="1">
          <mxGeometry x="209" y="464" width="28" height="19" as="geometry" />
        </mxCell>
        <mxCell id="5i6Ug29ZbOM_D7j-h46M-11" style="edgeStyle=orthogonalEdgeStyle;rounded=0;orthogonalLoop=1;jettySize=auto;html=1;exitX=0.023;exitY=0.094;exitDx=0;exitDy=0;entryX=0.25;entryY=0.5;entryDx=0;entryDy=0;exitPerimeter=0;strokeWidth=1;strokeColor=#005700;startArrow=block;startFill=0;entryPerimeter=0;" edge="1" parent="1" source="3KepqCRreSBxK8r_iUo3-4" target="5i6Ug29ZbOM_D7j-h46M-42">
          <mxGeometry relative="1" as="geometry" />
        </mxCell>
        <mxCell id="5i6Ug29ZbOM_D7j-h46M-43" value="&amp;nbsp; ILBS" style="shape=xor;whiteSpace=wrap;html=1;fontSize=8;fillColor=#a0522d;fontColor=#ffffff;strokeColor=#6D1F00;" vertex="1" parent="1">
          <mxGeometry x="305.25" y="523" width="28" height="19" as="geometry" />
        </mxCell>
      </root>
    </mxGraphModel>
  </diagram>
</mxfile>
